<svg width="13" height="13" viewBox="0 0 13 13" fill="none" xmlns="http://www.w3.org/2000/svg">
<path d="M12.4629 9.62152L11.1649 8.32353C10.9299 8.08874 10.6357 7.92212 10.3135 7.84142C9.99134 7.76073 9.6533 7.769 9.33544 7.86534C9.01759 7.96169 8.73185 8.1425 8.50869 8.38849C8.28553 8.63448 8.13333 8.93642 8.06831 9.26212C5.92783 8.86188 3.84602 6.78866 3.71644 4.93561C4.08033 4.86867 4.41523 4.69255 4.67659 4.43067C5.02072 4.08651 5.21405 3.61974 5.21405 3.13305C5.21405 2.64636 5.02072 2.1796 4.67659 1.83543L3.37894 0.537442C3.03476 0.193321 2.56799 0 2.08129 0C1.59458 0 1.12781 0.193321 0.783632 0.537442C-3.1097 4.43067 8.56955 16.1096 12.4629 12.2164C12.8068 11.8722 13 11.4055 13 10.919C13 10.4324 12.8068 9.96572 12.4629 9.62152Z" fill="#FFC700"/>
</svg>
