<svg width="51" height="74" viewBox="0 0 51 74" fill="none" xmlns="http://www.w3.org/2000/svg">
<path d="M25.5 0C11.4393 0 0 11.411 0 25.4368V25.5334C0 30.5612 1.35173 35.5087 3.90901 39.8411L23.4402 72.93C23.8303 73.5908 24.5407 73.9974 25.3092 74H25.3168C26.0826 74 26.7924 73.5987 27.1856 72.9428L46.9915 39.9118C49.6139 35.5384 51 30.5331 51 25.4367C50.9999 11.4109 39.5606 0 25.5 0ZM25.3166 37C19.1837 37 14.1943 32.0228 14.1943 25.9052C14.1943 19.7876 19.1838 14.8104 25.3166 14.8104C31.4494 14.8104 36.439 19.7876 36.439 25.9052C36.439 32.0228 31.4494 37 25.3166 37Z" fill="#008139"/>
</svg>
